M48
;DRILL file {Pcbnew (2013-07-07 BZR 4022)-stable} date 6/29/2014 7:18:07 PM
;FORMAT={-:-/ absolute / inch / decimal}
FMAT,2
INCH,TZ
T1C0.025
T2C0.032
T3C0.040
T4C0.066
T5C0.100
T6C0.155
T7C0.300
%
G90
G05
M72
T1
X4.6066Y1.9282
X4.7762Y1.9282
T2
X0.65Y0.1
X0.72Y1.625
X0.75Y0.1
X0.8Y1.15
X0.8Y0.65
X0.85Y0.1
X1.22Y1.625
X1.339Y1.29
X1.339Y1.19
X1.339Y1.09
X1.339Y0.99
X1.5Y0.71
X1.5Y0.3
X1.639Y1.29
X1.639Y1.19
X1.639Y1.09
X1.639Y0.99
X1.65Y0.5
X1.65Y0.1
X1.75Y0.5
X1.75Y0.1
X1.85Y0.5
X1.85Y0.1
X2.Y0.71
X2.Y0.3
X2.213Y1.391
X2.213Y1.291
X2.213Y1.191
X2.213Y0.91
X2.213Y0.81
X2.213Y0.71
X2.4036Y1.6
X2.4036Y1.1
T3
X0.7Y0.39
X0.8Y0.39
X1.484Y1.623
X1.484Y1.523
X2.1174Y1.7902
X2.1174Y1.6902
T4
X3.3Y1.1
X3.7Y1.1
T5
X0.31Y1.
X0.4Y0.8
X0.55Y1.
T6
X3.5Y1.6
X3.5Y0.4
T7
X0.25Y1.59
X0.25Y0.41
X4.75Y1.59
X4.75Y0.41
T0
M30
